<?xml version="1.0" standalone="no"?>
<!DOCTYPE svg PUBLIC "-//W3C//DTD SVG 20010904//EN"
 "http://www.w3.org/TR/2001/REC-SVG-20010904/DTD/svg10.dtd">
<svg version="1.0" xmlns="http://www.w3.org/2000/svg"
 width="1200.000000pt" height="1200.000000pt" viewBox="0 0 1200.000000 1200.000000"
 preserveAspectRatio="xMidYMid meet">
<metadata>
Created by potrace 1.11, written by Peter Selinger 2001-2013
</metadata>
<g transform="translate(0.000000,1200.000000) scale(0.100000,-0.100000)"
fill="#000000" stroke="none">
<path d="M1547 9117 l-108 -32 -175 -145 -175 -145 7 -90 c7 -97 11 -108 72
-175 37 -42 40 -48 46 -124 3 -45 6 -130 7 -191 l2 -109 -75 -71 c-114 -106
-144 -191 -118 -334 5 -31 17 -123 26 -206 8 -84 22 -159 29 -171 8 -12 35
-39 60 -60 l47 -38 -7 -95 c-3 -53 -10 -193 -16 -311 -5 -118 -16 -341 -24
-495 -8 -154 -19 -368 -24 -475 -5 -107 -15 -276 -20 -375 -6 -99 -13 -225
-15 -280 -6 -188 -27 -620 -32 -651 -2 -17 -61 -121 -131 -230 -179 -283 -175
-274 -171 -336 l3 -53 47 -3 c47 -3 47 -3 53 -45 3 -23 5 -87 3 -141 l-3 -100
-50 -12 c-27 -6 -93 -21 -145 -33 -161 -37 -171 -41 -310 -119 l-135 -76 45
-12 c25 -7 119 -32 210 -57 108 -29 166 -49 168 -58 1 -8 -14 -23 -34 -34 -21
-11 -53 -32 -72 -47 -19 -16 -71 -49 -115 -75 l-81 -48 51 -6 c28 -4 56 -9 61
-13 6 -4 41 -11 79 -16 74 -10 258 -43 338 -60 104 -22 204 -32 329 -31 l128
1 97 51 c53 29 159 86 236 127 77 41 192 103 256 138 l116 64 166 0 c134 0
168 -3 181 -15 9 -9 17 -45 21 -94 l7 -78 182 82 c141 64 213 90 326 119 80
20 156 36 169 36 24 0 -1 14 -389 211 l-204 104 -83 -2 c-60 -2 -83 1 -84 10
0 6 -2 30 -4 52 -2 22 -11 141 -20 265 -8 124 -20 293 -25 375 -6 83 -15 215
-20 295 -5 80 -14 210 -20 290 -11 157 -25 357 -40 600 -6 85 -17 252 -25 370
-8 118 -19 289 -25 380 -6 91 -15 230 -21 310 -39 553 -42 491 28 565 l57 60
13 100 c7 55 20 138 28 185 8 47 18 117 21 155 l6 70 -77 140 c-48 87 -90 151
-111 168 l-35 29 3 111 3 112 40 3 c39 3 41 5 79 76 46 85 45 105 -4 210 -18
37 -34 85 -37 107 -6 42 -25 63 -183 194 -46 39 -102 86 -125 106 -66 58 -156
129 -163 128 -4 0 -56 -15 -115 -32z m414 -464 c63 -33 89 -52 89 -65 0 -24
-4 -23 -55 12 -50 34 -81 40 -66 13 34 -63 41 -118 35 -268 -10 -213 -5 -205
-85 -151 -46 31 -68 53 -71 70 -3 14 -1 92 3 173 9 146 9 148 -14 165 -12 10
-27 18 -33 18 -8 0 -14 -60 -20 -182 l-9 -183 -50 3 c-27 2 -65 8 -82 13 -31
10 -33 14 -34 57 -1 26 -4 110 -8 187 l-6 140 -40 0 c-26 0 -39 -4 -38 -12 2
-7 6 -95 9 -196 l7 -184 -68 -32 c-37 -17 -70 -30 -72 -27 -2 2 -6 73 -8 157
-2 85 -4 161 -5 169 0 9 -22 29 -50 45 -27 17 -50 32 -50 36 0 3 24 13 53 24
28 10 58 22 65 28 15 12 267 34 410 36 l104 1 89 -47z m-447 -540 c3 -21 6
-75 6 -119 l0 -82 -82 -15 c-46 -8 -87 -12 -91 -8 -4 4 -6 54 -5 111 l3 104
70 22 c93 29 91 29 99 -13z m207 27 c17 -10 19 -22 19 -111 0 -116 0 -116 -93
-103 l-62 9 -3 108 -3 107 61 0 c34 0 70 -5 81 -10z m114 -40 c4 -6 31 -25 61
-41 54 -31 54 -31 54 -79 0 -27 -5 -72 -11 -100 -12 -57 -12 -57 -98 -18 l-44
20 7 60 c3 34 6 85 6 114 0 50 10 68 25 44z m240 -142 c16 -7 24 -17 21 -27
-8 -25 -10 -140 -4 -147 4 -3 17 13 30 35 13 22 26 41 30 41 4 0 19 -20 34
-45 24 -42 26 -52 20 -117 -4 -38 -11 -80 -15 -92 -8 -19 -11 -16 -39 29 -51
83 -62 95 -98 110 l-34 14 0 99 c0 119 3 124 55 100z m-831 -15 c13 -44 9
-124 -6 -139 -14 -14 -16 -11 -27 30 -14 58 -14 93 2 111 16 19 25 18 31 -2z
m-79 -98 c7 -58 5 -70 -20 -117 -31 -60 -51 -85 -62 -75 -9 10 -10 175 0 210
7 25 34 45 64 46 7 1 14 -24 18 -64z m767 -837 c89 -38 84 -28 93 -213 3 -66
8 -159 11 -207 5 -86 -6 -118 -21 -60 -3 15 -22 63 -40 107 -114 271 -157 405
-128 405 5 0 43 -15 85 -32z m-412 -3017 c50 -64 58 -71 91 -71 46 0 99 -10
99 -19 0 -7 -107 -71 -119 -71 -8 0 -88 133 -119 198 -26 55 -19 49 48 -37z
m-302 -314 c9 -8 38 -17 65 -20 l47 -7 0 36 c0 21 4 33 10 29 6 -3 10 -33 10
-67 l0 -60 -62 4 -63 3 -3 -70 c-3 -62 0 -72 19 -87 11 -10 32 -18 45 -18 30
0 31 -16 2 -23 -68 -17 -199 -30 -208 -21 -12 12 -35 256 -27 278 5 12 21 16
72 16 l65 0 2 43 c1 35 2 37 5 11 2 -18 12 -39 21 -47z m144 -204 c3 -35 1
-63 -4 -63 -4 0 -8 33 -7 73 1 84 6 79 11 -10z"/>
<path d="M1074 3596 c-3 -7 -1 -46 3 -87 l8 -73 43 -9 c70 -14 74 -9 66 80 -3
43 -9 81 -13 84 -3 4 -28 9 -54 13 -35 4 -49 2 -53 -8z"/>
<path d="M10868 8552 c-91 -3 -107 -12 -61 -34 15 -7 30 -25 34 -41 4 -15 7
-116 7 -224 -1 -180 -3 -198 -20 -215 -11 -11 -17 -22 -14 -25 2 -3 67 -4 143
-4 126 2 140 4 161 23 23 23 50 93 39 105 -4 3 -24 -12 -44 -34 -41 -44 -104
-70 -146 -59 -22 5 -25 12 -30 73 -4 38 -7 140 -7 227 0 148 2 161 21 182 11
12 17 23 12 25 -4 2 -47 3 -95 1z"/>
<path d="M11293 8521 c-75 -59 -98 -118 -98 -251 0 -79 5 -113 17 -136 26 -48
67 -93 102 -111 43 -23 141 -22 186 1 44 23 110 94 110 118 0 25 -7 23 -37
-12 -56 -68 -144 -88 -204 -47 -43 29 -96 132 -105 204 -17 140 76 268 175
241 44 -12 103 -67 126 -119 10 -21 22 -36 27 -33 8 5 1 153 -8 163 -2 2 -10
-2 -18 -8 -11 -10 -23 -8 -55 8 -28 15 -59 21 -105 21 -60 0 -68 -3 -113 -39z"/>
<path d="M8098 8540 c-52 -16 -98 -52 -125 -97 -30 -51 -53 -138 -53 -200 0
-83 59 -194 124 -234 43 -26 143 -26 195 0 47 25 101 85 101 113 0 20 -5 18
-42 -19 -52 -50 -77 -63 -118 -63 -94 0 -163 95 -175 245 -6 67 -4 87 13 125
22 51 54 84 96 100 25 9 37 7 83 -16 44 -21 60 -36 84 -80 46 -81 53 -79 46 9
-6 86 -12 103 -31 87 -10 -7 -26 -5 -57 9 -56 25 -107 32 -141 21z"/>
<path d="M8903 8543 c-40 -2 -73 -8 -73 -13 0 -5 13 -16 29 -25 16 -8 32 -23
35 -32 3 -10 6 -110 8 -221 3 -203 3 -204 -20 -223 -13 -10 -21 -23 -17 -28 7
-12 175 -10 176 3 0 5 -10 14 -23 20 -21 10 -24 21 -31 106 -6 77 -5 96 7 109
30 29 63 -1 106 -95 57 -123 74 -144 116 -144 37 0 74 15 74 29 0 5 -12 11
-27 14 -24 5 -35 21 -79 114 l-51 108 28 33 c94 107 7 257 -145 250 -23 -1
-74 -4 -113 -5z m183 -67 c30 -30 34 -40 34 -89 0 -76 -31 -104 -106 -95 l-29
3 -3 85 c-4 115 1 130 39 130 22 0 41 -10 65 -34z"/>
<path d="M9305 8540 c-3 -5 7 -16 23 -24 16 -8 33 -23 37 -33 4 -10 10 -109
13 -221 5 -197 4 -204 -17 -233 l-22 -29 96 0 c52 0 95 2 95 5 0 3 -11 10 -25
15 -14 5 -29 20 -34 32 -4 13 -11 116 -14 230 l-5 206 24 23 c13 12 24 26 24
31 0 11 -188 10 -195 -2z"/>
<path d="M9680 8526 c-38 -25 -82 -82 -99 -129 -19 -50 -25 -164 -11 -221 16
-66 67 -137 115 -160 43 -21 135 -24 180 -6 37 14 82 55 102 93 22 43 7 45
-35 5 -49 -47 -72 -58 -124 -58 -37 0 -50 6 -82 37 -57 56 -78 105 -84 199 -6
98 13 159 65 204 70 61 172 22 227 -87 31 -61 39 -52 31 33 -8 89 -12 99 -30
84 -9 -7 -25 -5 -60 10 -65 28 -149 26 -195 -4z"/>
<path d="M10376 8541 c-4 -5 11 -18 31 -28 l38 -18 8 -220 7 -220 -26 -21
c-14 -12 -22 -24 -17 -27 5 -3 70 -4 146 -3 155 2 166 7 192 82 18 52 7 64
-24 27 -53 -62 -151 -95 -178 -60 -6 6 -13 109 -17 228 -7 208 -6 216 14 234
11 10 20 22 20 27 0 11 -187 10 -194 -1z"/>
<path d="M3230 8525 c0 -8 -4 -23 -9 -33 -5 -9 -40 -111 -78 -226 -37 -116
-78 -225 -91 -244 -13 -19 -22 -36 -20 -37 3 -3 127 -8 156 -6 22 2 13 18 -18
31 -38 16 -46 46 -28 102 17 50 40 59 120 49 l53 -6 18 -54 c18 -54 18 -55 -2
-82 -12 -16 -21 -31 -21 -34 0 -3 45 -5 100 -5 55 0 100 3 100 6 0 3 -10 14
-23 24 -12 10 -37 53 -56 96 -18 44 -37 88 -42 99 -10 23 -113 291 -122 318
-8 21 -37 23 -37 2z m10 -166 c0 -5 9 -30 20 -54 11 -24 21 -54 23 -67 2 -21
-2 -23 -48 -23 -47 0 -50 1 -47 25 4 40 34 130 43 130 5 0 9 -5 9 -11z"/>
<path d="M4590 8521 c-5 -11 -46 -126 -89 -256 -51 -153 -86 -244 -100 -256
-12 -11 -19 -24 -16 -30 8 -12 162 -12 170 1 3 5 -10 19 -29 31 -27 16 -36 28
-36 48 0 47 21 92 47 102 28 10 93 12 118 3 38 -15 61 -134 28 -152 -10 -6
-14 -16 -10 -26 5 -13 23 -16 97 -16 83 0 90 1 90 20 0 11 -6 20 -14 20 -11 0
-76 115 -76 134 0 4 -86 227 -142 369 -12 32 -23 34 -38 8z m10 -164 c0 -8 11
-41 25 -75 14 -34 25 -64 25 -67 0 -3 -25 -5 -56 -5 l-57 0 6 36 c12 73 57
161 57 111z"/>
<path d="M5562 8529 c-52 -16 -116 -88 -137 -154 -27 -88 -18 -213 20 -284 50
-91 149 -137 241 -112 46 12 111 64 137 110 29 51 -2 49 -56 -4 -44 -42 -51
-45 -101 -45 -49 0 -57 3 -93 40 -52 51 -87 156 -81 239 11 157 123 231 219
144 22 -20 52 -56 66 -80 35 -61 47 -56 39 18 -3 34 -6 73 -6 87 0 21 -3 23
-25 18 -15 -4 -37 0 -54 9 -38 19 -127 27 -169 14z"/>
<path d="M6460 8532 c-80 -4 -90 -9 -61 -31 l24 -19 -26 -43 c-14 -24 -52 -73
-84 -108 l-58 -65 -6 85 c-7 89 2 144 26 153 8 3 15 10 15 16 0 13 -187 14
-195 0 -3 -6 4 -14 17 -19 45 -17 48 -29 54 -243 7 -200 6 -206 -14 -236 -12
-16 -22 -33 -22 -36 0 -3 44 -6 97 -6 l97 0 -37 36 c-34 34 -37 40 -37 95 0
60 15 109 34 109 6 0 34 -35 63 -78 111 -165 106 -161 163 -160 27 1 50 4 50
8 0 3 -14 19 -30 35 -26 25 -127 183 -169 263 -11 20 -5 30 57 105 38 45 81
88 95 96 28 15 36 36 15 42 -7 2 -38 3 -68 1z"/>
<path d="M6747 8532 c-26 -5 -20 -29 8 -36 13 -3 29 -14 34 -24 5 -9 12 -112
16 -229 8 -209 7 -211 -14 -224 -11 -8 -21 -18 -21 -24 0 -15 281 -7 299 8 16
13 50 85 51 105 0 23 -26 12 -43 -18 -24 -39 -65 -60 -121 -60 -60 0 -68 16
-64 128 l3 87 46 3 c43 3 46 1 64 -33 11 -19 23 -35 27 -35 5 0 8 41 8 90 0
100 -6 107 -51 59 -22 -24 -35 -30 -61 -27 l-33 3 0 90 0 90 56 3 c51 3 59 0
78 -24 12 -15 21 -33 21 -40 0 -8 7 -14 15 -14 16 0 19 52 6 100 l-7 25 -150
0 c-83 0 -158 -1 -167 -3z"/>
<path d="M7138 8533 c-26 -6 -22 -20 11 -37 16 -9 32 -23 36 -33 4 -10 9 -111
12 -225 4 -200 3 -208 -17 -220 -11 -7 -20 -16 -20 -20 0 -5 65 -8 144 -8
l145 0 25 33 c26 34 38 87 21 94 -6 2 -19 -10 -28 -27 -24 -39 -65 -60 -121
-60 -33 0 -48 5 -54 18 -5 9 -12 110 -15 225 -6 202 -6 208 15 227 12 11 19
23 15 26 -7 7 -144 13 -169 7z"/>
<path d="M7523 8534 c-22 -9 -14 -23 20 -38 33 -13 34 -16 40 -82 4 -38 7
-137 7 -220 0 -138 -2 -152 -20 -169 -11 -10 -20 -22 -20 -27 0 -4 63 -8 141
-8 l141 0 29 31 c20 22 29 41 29 65 0 19 -3 34 -6 34 -4 0 -23 -19 -43 -42
-35 -39 -42 -42 -99 -46 -58 -4 -61 -3 -66 19 -9 43 -13 177 -6 189 4 7 27 10
56 8 44 -3 50 -6 64 -36 21 -45 30 -31 30 47 0 102 -18 143 -39 88 -14 -35
-36 -49 -78 -45 l-38 3 -3 83 c-2 53 1 89 9 98 7 9 31 14 64 14 57 0 75 -12
95 -64 17 -45 30 -19 22 44 l-7 55 -155 2 c-85 1 -161 -1 -167 -3z"/>
<path d="M8387 8533 c-4 -3 -7 -35 -7 -70 0 -46 4 -63 12 -61 7 3 15 17 19 32
13 46 27 56 84 56 l52 0 6 -97 c4 -54 7 -151 7 -215 0 -105 -2 -120 -20 -138
-11 -11 -24 -20 -30 -20 -5 0 -10 -7 -10 -15 0 -12 19 -15 110 -15 87 0 110 3
110 14 0 8 -11 17 -25 20 -48 12 -55 47 -55 266 l0 200 55 0 c53 0 57 -2 76
-35 12 -19 25 -35 31 -35 8 0 3 73 -7 108 -3 9 -53 12 -203 12 -109 0 -202 -3
-205 -7z"/>
<path d="M2602 8523 c-16 -6 3 -33 23 -33 7 0 18 -6 24 -14 22 -26 50 -539 31
-566 -9 -13 -14 -11 -33 13 -28 33 -47 35 -47 3 0 -13 -3 -31 -6 -39 -9 -26
33 -60 64 -52 37 9 58 30 83 82 21 43 22 57 20 308 -2 244 -1 264 16 274 16 9
16 12 3 21 -15 10 -154 13 -178 3z"/>
<path d="M3870 8516 c0 -8 9 -18 20 -21 39 -12 47 -51 54 -261 l7 -202 -27
-19 c-45 -33 -23 -41 114 -39 124 1 130 2 177 31 70 43 114 109 125 187 19
127 -6 215 -78 280 -51 46 -106 58 -267 58 -102 0 -125 -3 -125 -14z m312 -73
c55 -55 81 -137 76 -233 -5 -92 -33 -148 -88 -179 -49 -27 -85 -27 -114 2 -22
22 -23 33 -30 220 -9 238 -7 242 67 233 42 -4 58 -13 89 -43z"/>
<path d="M4860 8518 c0 -7 12 -22 27 -33 34 -28 41 -79 42 -284 l1 -155 -27
-28 c-38 -40 -22 -49 73 -46 66 3 79 6 82 21 2 11 -3 17 -16 17 -49 0 -72 88
-72 270 l1 105 37 -40 c20 -22 80 -96 132 -164 115 -149 169 -211 183 -211 7
0 8 82 3 254 l-8 255 26 16 c14 10 26 21 26 26 0 5 -40 9 -90 9 -95 0 -110 -9
-61 -35 56 -28 61 -46 61 -200 0 -134 -1 -139 -18 -119 -9 12 -75 96 -146 188
l-129 166 -64 0 c-43 0 -63 -4 -63 -12z"/>
<path d="M5850 8520 c0 -5 16 -17 35 -26 20 -9 37 -26 39 -38 3 -11 7 -107 10
-213 5 -179 4 -193 -15 -216 -33 -43 -26 -47 76 -47 52 0 95 4 95 8 0 5 -13
18 -29 29 -25 19 -29 29 -35 95 -3 40 -6 140 -7 222 -1 142 0 150 21 166 11 9
18 19 14 23 -11 11 -204 8 -204 -3z"/>
<path d="M10066 8111 l-28 -29 23 -31 c28 -39 29 -84 1 -114 -26 -27 -28 -37
-8 -37 8 0 31 19 50 42 33 38 36 47 36 103 0 47 -4 66 -18 78 -24 22 -23 22
-56 -12z"/>
<path d="M2891 8094 c-26 -34 -26 -48 1 -84 26 -36 38 -37 66 -7 28 30 28 68
-1 95 -30 28 -41 28 -66 -4z"/>
<path d="M3561 8094 c-26 -33 -26 -48 0 -85 27 -38 49 -37 77 6 25 35 24 44
-11 83 -27 29 -41 28 -66 -4z"/>
<path d="M5497 7133 c-3 -5 -15 -38 -27 -73 -12 -36 -25 -74 -30 -85 -5 -11
-18 -51 -31 -90 -20 -65 -36 -102 -57 -133 -7 -10 -15 -9 -39 3 l-30 15 -5
153 c-4 118 -2 156 8 172 8 11 14 23 14 27 0 5 -31 8 -70 8 -38 0 -70 -4 -70
-8 0 -5 11 -18 25 -30 25 -21 25 -25 25 -167 0 -117 -3 -151 -16 -170 l-16
-25 83 -1 c46 0 109 0 139 -1 78 0 78 0 46 27 -28 23 -29 25 -18 63 10 34 17
41 46 46 50 9 79 -6 95 -50 12 -33 12 -39 -3 -49 -33 -25 -17 -35 54 -35 56 0
70 3 70 15 0 8 -6 15 -14 15 -7 0 -16 8 -19 18 -14 47 -136 345 -144 353 -6 6
-13 7 -16 2z m29 -195 c15 -33 10 -38 -34 -38 -32 0 -34 2 -28 28 4 15 12 40
18 56 l12 29 9 -24 c6 -13 16 -36 23 -51z"/>
<path d="M8625 7121 c-66 -41 -95 -100 -95 -196 0 -72 13 -106 57 -146 64 -59
145 -56 210 8 42 42 47 80 6 41 -66 -61 -111 -64 -162 -10 -58 60 -75 140 -46
210 24 56 53 82 92 82 45 0 80 -24 104 -73 26 -50 40 -37 31 28 -6 45 -10 50
-34 52 -15 1 -36 7 -47 12 -30 17 -83 13 -116 -8z"/>
<path d="M9170 7058 c-18 -46 -40 -105 -50 -133 -43 -123 -59 -160 -69 -163
-31 -10 -4 -22 49 -22 63 0 75 8 38 25 -25 11 -28 39 -9 88 10 25 15 27 64 27
48 0 55 -3 65 -25 15 -32 16 -82 2 -90 -26 -16 -4 -25 62 -25 l71 0 -22 24
c-20 21 -64 124 -129 304 -14 39 -29 72 -33 72 -4 0 -22 -37 -39 -82z m45 -84
c23 -55 20 -64 -20 -64 -39 0 -44 13 -24 69 14 40 25 39 44 -5z"/>
<path d="M9400 7126 c0 -7 8 -16 18 -18 16 -5 20 -20 25 -104 7 -106 -1 -231
-14 -240 -26 -16 2 -20 94 -16 104 5 124 11 137 47 14 38 -1 46 -30 15 -23
-25 -36 -30 -73 -30 l-44 0 -6 158 c-5 130 -4 159 9 168 30 24 14 34 -51 34
-49 0 -65 -3 -65 -14z"/>
<path d="M2746 7121 c-4 -5 5 -18 18 -28 23 -17 24 -25 30 -169 6 -129 5 -153
-9 -164 -28 -23 -16 -30 50 -30 61 0 85 13 50 26 -11 5 -15 24 -15 80 0 41 4
74 8 74 15 0 38 -32 67 -90 36 -72 53 -90 85 -90 42 0 67 33 31 43 -11 2 -33
34 -54 76 l-36 72 25 36 c28 42 30 63 8 108 -23 48 -66 65 -167 65 -47 0 -88
-4 -91 -9z m181 -53 c16 -15 23 -33 23 -59 0 -43 -18 -62 -57 -57 -27 3 -28 5
-31 71 -3 64 -2 67 19 67 13 0 33 -10 46 -22z"/>
<path d="M3078 7124 c-10 -10 3 -34 18 -34 26 0 34 -40 34 -178 0 -113 -3
-142 -15 -152 -30 -25 -9 -33 85 -36 l94 -2 33 33 c33 33 42 59 23 70 -5 3
-22 -7 -37 -24 -29 -30 -79 -46 -103 -31 -19 12 -26 122 -9 137 17 14 69 5 69
-12 0 -16 27 -38 33 -28 3 5 3 37 0 71 -6 64 -19 77 -41 42 -8 -13 -23 -20
-42 -20 l-30 0 0 66 0 65 47 -3 c41 -3 50 -7 61 -30 20 -43 33 -34 30 20 l-3
47 -121 3 c-66 1 -123 0 -126 -4z"/>
<path d="M3417 7104 c-64 -64 -39 -148 60 -204 70 -40 89 -67 71 -105 -13 -29
-53 -43 -77 -28 -14 9 -36 37 -67 89 -20 33 -28 6 -15 -51 11 -49 16 -57 48
-70 19 -8 47 -15 62 -15 77 0 127 110 86 190 -8 15 -41 44 -74 64 -72 44 -85
59 -77 90 14 55 85 35 115 -32 26 -58 46 -35 33 38 -7 38 -11 45 -29 42 -12
-2 -24 2 -28 8 -3 5 -23 10 -44 10 -28 0 -45 -7 -64 -26z"/>
<path d="M3620 7120 c0 -5 11 -17 25 -26 25 -16 25 -17 25 -175 0 -94 -4 -160
-10 -164 -5 -3 -10 -12 -10 -20 0 -10 17 -13 73 -12 72 2 89 13 49 32 -29 13
-32 30 -32 191 0 113 3 144 15 154 8 7 12 16 9 21 -7 12 -144 11 -144 -1z"/>
<path d="M3796 7121 c-4 -5 5 -18 18 -28 23 -17 24 -25 30 -171 6 -131 4 -153
-9 -158 -8 -4 -15 -14 -15 -23 0 -15 11 -17 93 -13 114 5 151 21 195 86 28 43
32 56 32 118 0 95 -27 142 -107 182 -35 18 -227 23 -237 7z m214 -51 c36 -26
60 -87 60 -155 0 -97 -37 -155 -101 -155 -20 0 -41 6 -46 13 -12 14 -27 300
-17 310 15 14 77 6 104 -13z"/>
<path d="M4150 7117 c0 -8 11 -19 25 -25 24 -11 25 -14 27 -129 3 -173 2 -197
-11 -201 -6 -2 -11 -10 -11 -18 0 -11 21 -14 104 -14 101 0 105 1 125 26 21
27 29 74 12 74 -5 0 -19 -12 -30 -26 -23 -30 -88 -49 -108 -32 -16 13 -18 134
-3 143 21 13 70 -6 70 -26 0 -11 7 -19 16 -19 14 0 16 9 11 61 -6 71 -14 82
-34 52 -10 -15 -26 -23 -44 -23 -29 0 -29 0 -29 65 l0 65 43 0 c46 0 67 -13
67 -42 0 -10 5 -18 11 -18 6 0 9 19 7 48 l-3 47 -122 3 c-99 2 -123 0 -123
-11z"/>
<path d="M4435 7120 c-3 -5 6 -20 20 -33 27 -22 27 -24 28 -164 2 -121 0 -143
-15 -160 -10 -11 -18 -23 -18 -26 0 -4 29 -7 65 -7 68 0 82 9 41 28 -30 13
-39 60 -34 176 l3 80 90 -113 c137 -172 137 -172 147 -169 6 2 9 73 8 177 -1
152 1 175 16 186 9 6 14 17 10 23 -8 13 -116 17 -116 5 0 -14 15 -29 33 -36
13 -5 17 -19 18 -67 0 -33 1 -77 2 -97 0 -20 -4 -38 -9 -40 -5 -1 -29 26 -54
60 -25 34 -69 90 -98 124 -48 57 -57 63 -92 63 -21 0 -42 -4 -45 -10z"/>
<path d="M4837 7123 c-3 -5 -7 -28 -8 -52 -4 -50 16 -69 27 -26 7 29 45 49 74
40 20 -6 30 -99 26 -231 -3 -67 -6 -80 -25 -92 -37 -25 -23 -32 64 -32 47 0
85 3 85 7 0 4 -12 17 -27 29 -28 22 -28 23 -31 164 -4 151 -1 159 43 160 11 0
32 -14 48 -32 l27 -33 -2 50 -3 50 -147 3 c-80 1 -149 -1 -151 -5z"/>
<path d="M5685 7121 c-3 -6 7 -16 22 -23 l28 -13 3 -160 c2 -135 0 -160 -13
-168 -32 -18 0 -27 96 -27 95 0 101 1 124 26 25 27 34 74 14 74 -6 0 -18 -9
-27 -20 -10 -12 -35 -27 -57 -35 -36 -12 -41 -12 -52 3 -16 20 -18 322 -3 322
6 0 10 7 10 15 0 12 -14 15 -69 15 -39 0 -72 -4 -76 -9z"/>
<path d="M6468 7105 c-20 -14 -46 -44 -58 -70 -19 -39 -22 -58 -18 -120 3 -47
12 -85 24 -106 59 -101 195 -106 263 -11 28 40 10 51 -26 18 -36 -33 -88 -44
-122 -25 -81 46 -105 211 -41 282 51 57 135 31 171 -55 17 -42 30 -21 23 38
l-6 50 -52 12 c-78 18 -117 15 -158 -13z"/>
<path d="M6790 7094 c-129 -116 -62 -364 98 -364 49 0 113 41 139 90 33 62 33
179 0 233 -34 56 -71 77 -139 77 -53 0 -62 -3 -98 -36z m149 -9 c41 -35 65
-111 58 -186 -18 -198 -192 -182 -213 20 -9 79 1 124 35 160 37 39 78 41 120
6z"/>
<path d="M7070 7125 c0 -2 12 -16 26 -30 l26 -26 -7 -147 c-5 -107 -11 -150
-21 -158 -21 -17 -6 -24 48 -24 48 0 65 13 29 23 -15 4 -21 17 -26 61 -7 57 1
153 13 142 3 -4 24 -54 46 -113 23 -59 46 -108 52 -110 6 -2 30 46 53 107 24
60 47 110 52 110 5 0 10 -30 11 -67 2 -97 2 -95 -5 -125 l-7 -28 122 0 121 0
-21 23 c-19 20 -22 35 -22 112 0 54 4 85 9 80 5 -6 21 -39 36 -75 14 -36 30
-74 35 -85 4 -11 11 -28 14 -37 11 -35 24 -17 66 90 53 133 53 134 61 97 13
-60 10 -160 -7 -183 l-15 -22 65 0 c36 0 66 2 66 5 0 2 -9 12 -19 22 -17 16
-20 39 -26 168 -7 132 -6 152 9 164 25 21 19 31 -18 31 l-34 0 -52 -132 c-28
-73 -55 -137 -59 -141 -4 -4 -33 54 -63 130 l-55 138 -42 3 c-43 3 -54 -10
-23 -27 14 -8 17 -28 20 -133 4 -157 -5 -202 -39 -206 -43 -5 -49 15 -56 182
-5 139 -4 156 10 162 30 11 18 25 -20 22 l-36 -3 -51 -132 c-28 -73 -55 -131
-61 -130 -5 2 -25 41 -44 88 -76 190 -69 179 -118 179 -24 0 -43 -2 -43 -5z"/>
<path d="M7900 7121 c0 -5 12 -17 27 -26 l26 -17 -7 -156 c-4 -88 -11 -161
-17 -169 -9 -11 8 -13 95 -13 l106 0 20 33 c37 61 21 76 -29 26 -25 -25 -37
-30 -68 -27 l-38 3 0 75 0 75 32 3 c27 3 35 -1 45 -22 19 -43 28 -30 28 39 0
36 -4 65 -8 65 -5 0 -18 -12 -31 -26 -14 -16 -30 -24 -44 -22 -19 3 -23 11
-28 58 -8 74 -4 80 47 80 35 0 47 -5 60 -25 23 -36 36 -31 32 13 l-3 37 -122
3 c-70 1 -123 -1 -123 -7z"/>
<path d="M8206 7109 c17 -18 19 -40 22 -176 3 -140 2 -156 -15 -168 -26 -19
-12 -27 56 -28 65 -2 75 7 41 36 -16 13 -20 29 -20 77 0 101 44 92 95 -21 32
-71 64 -97 100 -81 30 14 33 32 6 32 -14 0 -29 21 -55 76 l-36 76 25 30 c41
49 29 119 -25 151 -21 13 -52 17 -121 17 l-92 0 19 -21z m167 -31 c27 -31 23
-94 -7 -114 -14 -8 -35 -14 -48 -12 -21 3 -23 9 -26 72 -3 74 6 90 43 80 11
-3 28 -15 38 -26z"/>
<path d="M8883 7109 l27 -21 0 -153 c0 -123 -3 -155 -15 -165 -25 -20 -7 -30
56 -30 62 0 70 5 42 26 -15 10 -19 35 -24 161 -6 135 -4 150 13 176 l19 27
-73 0 -73 -1 28 -20z"/>
<path d="M6142 6974 c-32 -22 -30 -76 4 -103 34 -27 40 -26 69 4 31 30 32 65
2 93 -28 26 -45 27 -75 6z"/>
<path d="M9380 6517 c-52 -26 -74 -121 -39 -164 7 -8 43 -34 81 -58 57 -38 68
-49 68 -72 -1 -40 -24 -66 -60 -66 -35 0 -62 22 -87 71 l-18 37 -3 -32 c-5
-50 17 -84 63 -100 48 -17 76 -11 109 22 32 32 39 58 32 109 -8 48 -34 78
-108 121 -43 24 -48 31 -48 61 0 27 5 37 23 43 31 12 58 -1 85 -40 32 -47 47
-50 39 -9 -4 18 -7 40 -7 50 0 12 -10 19 -32 23 -18 3 -42 8 -53 11 -11 3 -31
1 -45 -7z"/>
<path d="M9793 6522 c-45 -3 -58 -20 -23 -29 11 -3 20 -10 20 -15 0 -23 -54
-128 -64 -125 -6 2 -21 30 -34 63 -18 45 -21 63 -13 76 6 10 11 20 11 23 0 3
-29 5 -65 5 -62 0 -85 -13 -49 -27 9 -3 35 -45 57 -92 34 -70 42 -100 45 -159
4 -66 2 -74 -19 -92 l-24 -19 78 -1 c49 0 77 4 77 11 0 6 -9 13 -20 16 -18 5
-20 14 -20 77 0 57 6 86 32 149 17 42 40 86 50 97 34 36 24 47 -39 42z"/>
<path d="M9954 6520 c-35 -14 -64 -59 -64 -100 0 -46 28 -84 83 -111 58 -29
87 -58 87 -86 0 -26 -41 -73 -62 -73 -24 0 -58 31 -78 71 -22 42 -47 54 -35
17 4 -13 9 -35 12 -51 7 -38 39 -57 93 -57 63 0 101 38 107 107 6 60 -16 91
-107 149 -37 23 -60 45 -60 56 0 21 34 58 54 58 19 0 76 -48 76 -65 0 -7 7
-18 15 -25 13 -11 15 -5 15 42 l0 55 -37 6 c-21 3 -47 8 -58 11 -11 3 -30 1
-41 -4z"/>
<path d="M11069 6514 c-12 -15 -25 -45 -86 -191 -26 -66 -47 -80 -57 -39 -3
13 -24 71 -47 130 l-41 106 -44 0 c-48 0 -55 -8 -23 -28 20 -13 21 -20 17
-159 -2 -120 -6 -151 -20 -168 -10 -12 -16 -24 -14 -26 3 -2 28 -2 57 0 52 3
52 3 30 20 -20 15 -22 23 -19 111 l3 95 27 -59 c15 -32 33 -75 39 -95 6 -20
17 -45 25 -56 19 -25 21 -21 71 107 21 54 43 96 48 94 6 -1 11 -44 13 -95 2
-80 0 -95 -15 -107 -16 -12 -9 -13 50 -14 70 0 79 4 50 26 -16 11 -18 34 -21
166 -4 132 -2 156 12 167 9 7 16 17 16 22 0 15 -57 10 -71 -7z"/>
<path d="M11222 6507 c-29 -31 -40 -98 -21 -133 7 -14 44 -43 81 -65 65 -38
68 -42 68 -78 0 -61 -49 -90 -96 -57 -11 8 -29 33 -39 55 -24 53 -39 53 -31 0
10 -62 21 -75 71 -88 79 -20 134 25 137 111 3 58 -18 90 -82 125 -66 37 -84
56 -76 87 15 61 78 53 123 -16 28 -43 28 -43 31 -15 7 56 -2 80 -28 84 -120
15 -114 16 -138 -10z"/>
<path d="M3995 6512 c-60 -4 -79 -17 -43 -31 14 -5 28 -17 32 -26 10 -27 7
-201 -5 -232 -27 -72 -94 -96 -137 -50 -51 54 -72 249 -32 299 10 14 16 28 13
32 -3 3 -37 6 -75 6 -71 0 -91 -15 -45 -35 21 -9 22 -17 27 -140 4 -116 8
-134 28 -163 30 -42 70 -62 124 -62 55 0 99 27 124 76 16 32 19 61 19 162 0
92 3 125 13 131 8 5 12 15 10 22 -2 10 -17 13 -53 11z"/>
<path d="M4122 6486 c-25 -28 -32 -46 -32 -77 0 -55 25 -87 99 -129 66 -36 82
-63 63 -104 -24 -53 -85 -35 -121 36 -24 50 -41 55 -41 11 0 -50 21 -89 55
-102 54 -19 91 -14 123 19 63 62 48 152 -33 206 -90 60 -95 65 -95 88 0 60 61
59 105 -1 16 -23 34 -42 38 -42 4 -1 7 22 5 51 -3 51 -4 53 -38 61 -89 22 -94
21 -128 -17z"/>
<path d="M4340 6505 c-12 -15 -16 -98 -5 -101 6 -2 19 11 30 29 15 23 29 33
51 35 31 3 31 2 37 -50 4 -29 7 -97 7 -151 0 -91 -2 -98 -25 -119 -14 -12 -25
-25 -25 -30 0 -11 158 -10 165 2 3 5 -6 17 -20 26 -25 16 -25 17 -25 170 l0
154 34 0 c28 0 37 -5 48 -27 7 -15 18 -25 23 -23 12 6 9 70 -4 83 -13 13 -280
15 -291 2z"/>
<path d="M6214 6508 c-2 -4 7 -18 21 -32 25 -25 25 -28 25 -176 0 -125 -3
-152 -15 -156 -35 -14 -10 -24 55 -24 40 0 70 4 70 10 0 6 -7 10 -15 10 -9 0
-20 12 -25 26 -15 38 -12 120 4 133 19 16 64 3 71 -20 12 -38 25 -17 25 41 0
65 -12 76 -43 39 -11 -12 -27 -19 -40 -17 -20 3 -22 10 -25 66 -3 59 -2 63 23
72 35 13 73 -3 86 -37 9 -25 11 -26 20 -10 6 10 9 30 7 45 l-3 27 -118 5 c-66
3 -121 2 -123 -2z"/>
<path d="M7048 6513 c-65 -4 -90 -19 -49 -30 11 -3 22 -15 25 -26 10 -38 7
-295 -4 -302 -5 -3 -10 -12 -10 -19 0 -9 25 -11 103 -9 92 3 104 6 119 26 16
21 25 67 12 67 -3 0 -17 -13 -30 -30 -16 -18 -39 -32 -61 -36 -50 -9 -65 12
-61 91 3 58 4 60 32 63 22 3 34 -3 47 -20 24 -31 31 -20 27 46 l-3 56 -37 -26
c-54 -39 -68 -28 -68 51 l0 65 50 0 c46 0 52 -3 62 -27 l12 -28 4 33 c7 66 14
64 -170 55z"/>
<path d="M8192 6463 c-62 -177 -114 -308 -128 -325 -16 -17 -15 -18 44 -18 65
0 75 7 42 28 -13 8 -20 23 -20 42 0 44 31 70 83 70 46 0 59 -12 71 -66 5 -22
2 -35 -9 -44 -28 -23 -16 -30 50 -30 51 0 65 3 65 15 0 8 -5 15 -10 15 -6 0
-13 8 -17 18 -12 35 -94 248 -102 267 -5 11 -14 35 -21 53 -7 17 -16 32 -20
32 -5 0 -17 -26 -28 -57z m38 -109 c11 -26 20 -50 20 -55 0 -5 -19 -9 -41 -9
-40 0 -41 1 -36 28 7 34 25 82 31 82 3 0 14 -21 26 -46z"/>
<path d="M8750 6509 c0 -6 9 -23 21 -37 19 -24 20 -35 14 -157 -6 -105 -10
-135 -26 -157 l-20 -28 62 0 62 0 -27 25 c-24 22 -26 30 -26 104 0 44 4 82 9
85 5 3 28 -44 52 -104 24 -61 48 -109 53 -107 8 3 23 36 87 195 5 13 14 20 19
17 13 -8 13 -195 0 -195 -5 0 -10 -4 -10 -10 0 -6 29 -10 66 -10 l66 0 -26 31
c-24 28 -26 39 -28 137 -3 156 -1 175 22 194 29 24 25 30 -21 26 l-41 -3 -53
-130 c-29 -71 -57 -131 -63 -133 -5 -1 -14 10 -20 25 -6 15 -27 71 -48 123
-20 52 -41 101 -46 108 -13 15 -78 16 -78 1z"/>
<path d="M10140 6501 c-12 -24 -13 -81 -1 -81 5 0 14 14 21 30 13 30 42 45 77
38 16 -3 18 -17 21 -161 l3 -157 -26 -12 c-44 -20 -28 -28 55 -28 44 0 80 3
80 6 0 4 -11 17 -25 30 -25 23 -26 25 -23 171 l3 148 35 3 c29 3 39 -2 62 -30
l28 -33 -2 45 -3 45 -147 3 c-137 2 -148 1 -158 -17z"/>
<path d="M10483 6497 l29 -22 -4 -152 c-3 -132 -5 -154 -22 -172 l-19 -21 102
0 c100 0 103 1 132 29 16 16 29 39 29 50 0 28 -7 26 -36 -8 -26 -32 -70 -47
-104 -36 -19 6 -21 13 -18 78 3 72 3 72 33 75 23 3 35 -3 52 -25 l23 -28 0 68
c0 69 -10 83 -32 47 -9 -13 -24 -20 -45 -20 l-33 0 0 58 c0 32 5 63 12 70 23
23 68 14 99 -19 l29 -31 0 41 0 41 -127 0 -128 0 28 -23z"/>
<path d="M2781 6501 c-11 -7 -8 -13 13 -26 l26 -17 0 -157 c0 -109 -4 -161
-12 -169 -7 -7 -10 -12 -7 -13 20 -3 129 -4 129 -1 0 2 -10 12 -21 21 -20 16
-22 30 -27 173 -3 110 -1 157 7 162 6 4 11 14 11 22 0 10 -13 14 -52 14 -29 0
-59 -4 -67 -9z"/>
<path d="M2945 6500 c-8 -13 3 -30 20 -30 20 0 25 -25 32 -160 5 -112 4 -131
-13 -158 -10 -17 -16 -33 -13 -35 2 -2 28 -1 58 1 l54 4 -28 23 c-28 21 -29
25 -33 141 -4 105 -3 117 10 106 9 -7 64 -73 123 -147 60 -74 113 -132 118
-128 6 3 6 70 2 173 -7 160 -6 169 13 188 11 11 18 23 15 26 -9 9 -113 7 -113
-1 0 -4 12 -17 28 -29 26 -21 27 -27 30 -123 3 -62 0 -101 -6 -101 -6 0 -52
53 -103 118 -51 64 -100 122 -109 129 -18 15 -76 17 -85 3z"/>
<path d="M3320 6501 c0 -5 11 -16 24 -24 23 -15 24 -23 31 -168 7 -141 6 -154
-11 -166 -31 -22 -3 -29 97 -23 108 6 134 18 175 80 68 102 30 253 -73 296
-36 16 -243 20 -243 5z m207 -41 c39 -23 61 -63 74 -136 18 -98 -29 -184 -102
-184 -59 0 -64 14 -64 169 0 75 4 144 7 154 10 23 45 22 85 -3z"/>
<path d="M4650 6500 c0 -6 11 -15 23 -21 23 -10 24 -16 30 -156 6 -126 4 -150
-10 -174 -9 -16 -15 -30 -12 -32 2 -2 35 -1 74 2 l69 6 -27 18 c-25 16 -27 23
-27 82 0 58 2 65 20 65 14 0 28 -16 46 -52 45 -90 71 -118 108 -118 38 0 59
28 28 37 -11 2 -34 36 -55 79 l-38 75 26 30 c28 35 31 56 11 102 -23 55 -52
67 -166 67 -61 0 -100 -4 -100 -10z m195 -60 c30 -58 8 -110 -46 -110 -26 0
-27 3 -34 59 -8 71 -4 81 35 81 23 0 33 -7 45 -30z"/>
<path d="M4990 6500 c0 -6 11 -15 24 -21 31 -14 36 -42 36 -188 0 -91 -4 -122
-16 -139 -9 -13 -14 -26 -11 -29 12 -11 130 -8 134 5 3 6 -2 12 -10 12 -28 0
-35 26 -42 172 -7 140 -6 147 13 164 12 10 19 21 16 26 -8 12 -144 10 -144 -2z"/>
<path d="M5333 6498 c-5 -7 -26 -60 -47 -118 -72 -200 -87 -239 -98 -242 -7
-3 -9 -9 -6 -14 9 -14 101 -10 106 4 2 7 -3 12 -11 12 -22 0 -28 27 -17 71
l11 39 53 0 c34 0 58 -5 65 -14 17 -21 25 -82 12 -90 -26 -17 -6 -26 56 -26
l66 0 -19 23 c-11 12 -28 40 -36 62 -22 54 -62 157 -88 230 -26 71 -33 80 -47
63z m21 -151 c23 -62 21 -67 -24 -67 -32 0 -40 4 -40 19 0 25 28 91 39 91 4 0
16 -19 25 -43z"/>
<path d="M5537 6503 c-12 -11 -8 -20 11 -25 16 -4 20 -19 25 -83 12 -136 9
-228 -9 -253 l-15 -22 105 0 c101 0 105 1 125 26 21 27 28 64 13 64 -5 0 -18
-11 -30 -25 -23 -27 -57 -39 -93 -33 -24 3 -24 5 -31 158 -6 129 -4 157 8 166
29 23 15 34 -44 34 -32 0 -62 -3 -65 -7z"/>
<path d="M6470 6502 c0 -4 10 -12 23 -17 26 -12 34 -64 36 -226 1 -75 -2 -99
-14 -109 -28 -23 -16 -30 50 -30 36 0 65 3 65 6 0 3 -9 13 -19 22 -18 15 -20
33 -23 170 -3 137 -1 155 15 166 9 7 17 16 17 20 0 3 -34 6 -75 6 -41 0 -75
-3 -75 -8z"/>
<path d="M6650 6504 c0 -3 9 -13 19 -22 18 -15 20 -33 23 -169 2 -136 1 -154
-16 -172 l-19 -21 73 0 73 0 -20 23 c-22 23 -36 98 -26 136 4 15 12 21 27 19
15 -2 33 -26 62 -83 41 -79 42 -80 83 -83 32 -2 41 0 41 12 0 9 -7 16 -15 16
-10 0 -30 29 -51 75 l-36 74 21 30 c31 43 29 111 -5 145 -25 25 -32 26 -130
26 -57 0 -104 -3 -104 -6z m174 -36 c13 -13 27 -40 30 -60 9 -49 -20 -81 -67
-76 l-32 3 0 60 c1 98 19 117 69 73z"/>
<path d="M7543 6448 c-59 -175 -97 -275 -109 -289 -24 -27 -16 -35 36 -36 48
-1 66 11 35 23 -20 8 -19 63 1 92 12 17 25 22 58 22 47 0 62 -11 76 -58 6 -22
4 -36 -6 -49 -22 -30 -17 -33 51 -33 64 0 77 7 52 29 -8 6 -26 43 -42 83 -54
144 -92 243 -98 261 -12 34 -33 16 -54 -45z m50 -95 c9 -27 17 -51 17 -55 0
-5 -20 -8 -45 -8 -29 0 -45 4 -45 12 0 25 33 98 44 98 7 0 20 -21 29 -47z"/>
<path d="M7781 6487 c26 -21 27 -26 32 -162 5 -110 3 -145 -8 -165 -8 -14 -14
-28 -15 -32 0 -5 42 -8 94 -8 104 0 138 15 150 66 10 38 1 40 -33 6 -28 -28
-81 -45 -107 -35 -17 6 -24 63 -24 193 0 89 4 121 16 138 l15 22 -73 0 -73 0
26 -23z"/>
<path d="M8420 6504 c0 -4 8 -13 18 -20 15 -11 17 -30 15 -160 -1 -96 -6 -155
-14 -170 -7 -13 -10 -26 -7 -29 2 -3 33 -2 68 2 60 6 63 7 42 21 -19 12 -22
24 -22 82 0 36 3 70 6 73 15 15 46 -18 78 -81 40 -80 55 -95 92 -90 33 4 44
27 17 34 -13 4 -31 31 -53 80 l-33 75 20 22 c27 29 33 60 22 101 -15 54 -44
66 -154 66 -52 0 -95 -3 -95 -6z m171 -33 c19 -15 24 -29 24 -65 0 -54 -14
-67 -65 -64 l-35 3 -3 59 c-2 32 -1 65 2 72 8 20 50 17 77 -5z"/>
<path d="M5977 6352 c-34 -37 -10 -112 35 -112 21 0 58 42 58 66 0 24 -39 64
-62 64 -8 0 -22 -8 -31 -18z"/>
<path d="M6908 5895 c-36 -20 -48 -44 -48 -95 0 -56 12 -75 68 -106 68 -39 92
-64 92 -94 0 -48 -53 -75 -99 -51 -10 6 -26 28 -36 50 -23 53 -37 52 -29 -1 9
-60 19 -74 55 -82 98 -19 149 21 149 117 0 54 -19 77 -107 131 -63 38 -72 51
-53 87 15 28 70 25 98 -4 12 -13 22 -28 22 -34 0 -6 7 -16 16 -23 13 -12 15
-7 12 41 -3 53 -4 54 -38 61 -19 3 -44 9 -55 12 -11 3 -32 -1 -47 -9z"/>
<path d="M2864 5890 c-35 -14 -54 -50 -54 -101 0 -43 4 -51 42 -83 23 -20 46
-36 51 -36 24 0 77 -52 77 -76 0 -30 -33 -64 -61 -64 -24 0 -89 63 -89 86 0 8
-7 14 -16 14 -10 0 -14 -6 -11 -14 3 -8 9 -31 13 -51 5 -30 13 -40 40 -51 54
-22 92 -18 125 15 26 26 29 37 29 89 0 56 -2 62 -33 88 -19 16 -55 41 -80 56
-40 23 -47 32 -47 58 0 23 6 33 25 42 36 16 70 -2 96 -53 25 -50 37 -39 29 28
-4 43 -8 48 -30 49 -14 0 -38 3 -55 7 -16 3 -40 2 -51 -3z"/>
<path d="M3675 5891 c-3 -2 7 -17 21 -34 25 -30 26 -33 22 -168 -3 -118 -6
-140 -22 -158 l-19 -21 59 1 c57 0 58 1 37 16 -21 14 -23 23 -23 111 0 52 3
92 8 88 4 -4 26 -53 49 -109 23 -56 47 -102 53 -102 6 0 30 48 53 108 23 59
45 107 48 107 9 0 19 -66 19 -131 0 -38 -5 -61 -15 -69 -8 -7 -13 -16 -10 -20
6 -10 233 -11 240 -1 2 5 -4 16 -15 26 -17 15 -20 31 -20 102 0 45 3 83 8 83
4 0 25 -46 47 -102 22 -56 45 -103 51 -105 6 -2 30 46 53 107 24 60 46 110 50
110 5 0 11 -39 14 -87 5 -69 3 -92 -9 -110 -16 -26 -17 -25 51 -23 61 2 72 8
47 26 -17 11 -20 31 -26 160 -7 141 -7 147 14 169 27 28 13 40 -36 30 -38 -7
-49 -26 -88 -150 -21 -69 -45 -125 -54 -125 -4 0 -25 48 -46 108 -61 165 -59
162 -112 162 l-46 0 26 -31 c25 -30 26 -35 26 -168 0 -93 -4 -141 -12 -149
-16 -16 -53 -15 -66 1 -7 7 -14 81 -18 165 -6 136 -5 152 9 158 30 11 18 25
-20 22 -41 -3 -31 14 -111 -186 -16 -40 -33 -72 -38 -70 -5 2 -28 50 -51 108
-61 150 -59 148 -105 152 -21 2 -41 2 -43 -1z"/>
<path d="M4500 5886 c0 -8 9 -17 20 -21 18 -6 19 -18 22 -163 2 -86 0 -161 -4
-166 -17 -21 -6 -26 51 -26 59 0 89 13 52 23 -15 4 -19 19 -24 103 -11 164 -9
224 8 230 8 4 15 12 15 20 0 11 -17 14 -70 14 -54 0 -70 -3 -70 -14z"/>
<path d="M4670 5885 c0 -7 6 -18 14 -22 29 -17 36 -54 36 -181 0 -103 -3 -132
-15 -142 -27 -22 -16 -30 45 -30 59 0 79 13 41 25 -11 3 -24 20 -30 38 -14 47
-20 208 -7 204 6 -2 49 -51 96 -109 111 -137 138 -168 144 -168 3 0 6 80 6
178 0 166 1 178 20 190 11 7 20 17 20 22 0 11 -113 14 -124 3 -3 -4 7 -19 24
-34 29 -27 30 -30 30 -118 0 -50 -2 -91 -5 -91 -8 0 -54 54 -134 158 -71 92
-72 92 -116 92 -33 0 -45 -4 -45 -15z"/>
<path d="M5123 5860 c-50 -50 -68 -108 -59 -192 14 -134 117 -201 234 -153 58
25 82 53 82 96 0 21 5 41 10 44 6 3 10 13 10 21 0 11 -16 14 -75 14 -78 0 -93
-9 -50 -28 21 -10 25 -18 25 -55 0 -24 -5 -48 -12 -55 -19 -19 -82 -14 -106 8
-69 65 -72 237 -5 290 51 40 131 11 153 -54 18 -56 40 -47 40 17 l0 52 -49 18
c-27 9 -73 17 -104 17 -50 0 -58 -3 -94 -40z"/>
<path d="M5605 5892 c-59 -3 -60 -3 -37 -21 22 -16 23 -25 29 -164 5 -131 3
-150 -12 -167 -9 -10 -14 -23 -11 -28 5 -8 116 -4 125 4 3 2 -5 13 -17 24 -18
17 -22 32 -22 83 l0 62 45 -3 c39 -4 49 0 75 26 25 26 30 38 30 79 0 88 -52
114 -205 105z m110 -28 c21 -8 45 -56 45 -89 0 -33 -41 -75 -73 -75 -20 0 -25
6 -31 38 -18 110 0 148 59 126z"/>
<path d="M5934 5881 c-68 -41 -100 -116 -91 -209 11 -104 71 -162 170 -162 55
0 60 2 102 45 37 39 45 53 50 100 19 148 -43 245 -157 245 -24 0 -56 -8 -74
-19z m107 -18 c45 -27 69 -86 69 -172 0 -40 -5 -82 -11 -94 -48 -92 -126 -89
-175 6 -22 42 -30 154 -14 201 7 23 24 45 44 57 38 23 50 24 87 2z"/>
<path d="M6274 5868 c-51 -45 -74 -99 -74 -176 0 -73 29 -129 83 -162 39 -24
106 -26 151 -5 119 57 129 278 17 352 -25 17 -49 23 -87 23 -46 0 -58 -5 -90
-32z m140 -18 c78 -69 83 -242 9 -300 -52 -40 -117 -15 -146 57 -39 99 -28
203 26 249 38 32 69 30 111 -6z"/>
<path d="M6547 5893 c-4 -3 7 -14 23 -24 l30 -19 0 -140 c0 -102 -4 -149 -14
-168 l-14 -27 86 0 c134 2 131 1 148 40 22 54 17 62 -20 26 -34 -33 -107 -54
-119 -34 -3 5 -7 78 -8 162 -1 115 1 155 11 161 25 16 -3 30 -59 30 -32 0 -61
-3 -64 -7z"/>
<path d="M3040 5881 c0 -5 6 -14 14 -20 7 -6 37 -85 66 -174 28 -89 53 -168
56 -175 7 -22 27 -8 40 29 7 19 21 59 32 89 11 30 24 54 29 53 4 0 22 -41 38
-89 17 -48 35 -89 40 -91 10 -3 24 37 60 172 20 74 51 177 60 198 6 15 1 17
-39 17 -47 0 -59 -12 -29 -28 13 -8 15 -20 10 -63 -7 -66 -35 -159 -46 -159
-5 0 -21 39 -36 88 -14 48 -31 96 -36 106 -9 15 -8 21 5 28 31 18 15 28 -44
28 -58 0 -75 -10 -45 -27 16 -9 45 -84 45 -116 0 -30 -42 -139 -50 -130 -21
24 -81 236 -70 247 20 20 9 26 -45 26 -30 0 -55 -4 -55 -9z"/>
<path d="M3510 5880 c0 -5 9 -14 20 -20 19 -10 20 -21 20 -165 0 -92 -4 -156
-10 -160 -25 -16 -5 -25 55 -25 62 0 87 12 47 22 -15 4 -20 19 -25 74 -12 126
-8 238 9 262 l15 22 -65 0 c-36 0 -66 -4 -66 -10z"/>
<path d="M6455 4261 c-94 -43 -145 -132 -145 -256 0 -92 18 -140 72 -195 35
-36 92 -60 142 -60 43 0 131 47 160 85 46 59 30 75 -25 24 -89 -83 -189 -59
-244 57 -38 80 -42 145 -15 217 42 111 130 141 208 70 23 -21 49 -53 60 -72
25 -47 42 -51 37 -9 -3 18 -7 54 -10 81 -6 43 -8 47 -29 41 -12 -3 -43 4 -70
15 -58 26 -89 26 -141 2z"/>
<path d="M3801 4256 c-9 -11 -7 -15 13 -20 54 -13 56 -21 56 -235 0 -164 -3
-201 -15 -211 -29 -24 -14 -30 75 -30 86 0 117 11 66 24 -38 9 -46 52 -46 251
0 178 1 183 23 198 33 22 16 30 -77 34 -62 2 -87 -1 -95 -11z"/>
<path d="M4163 4243 c-81 -55 -117 -131 -116 -248 0 -79 21 -131 74 -185 41
-41 67 -50 141 -50 75 0 118 20 164 76 46 56 35 79 -15 31 -47 -45 -71 -57
-119 -57 -55 0 -101 34 -134 100 -36 73 -44 141 -24 211 43 146 182 157 261
22 31 -54 52 -64 47 -22 -1 13 -5 48 -8 77 -6 49 -17 67 -26 40 -3 -9 -15 -7
-44 7 -21 10 -66 21 -99 23 -53 3 -65 0 -102 -25z"/>
<path d="M5365 4260 c-3 -5 8 -16 24 -25 44 -22 53 -69 49 -255 -3 -152 -4
-160 -27 -184 -15 -15 -21 -30 -15 -34 13 -11 179 1 177 13 -1 6 -10 12 -20
14 -10 2 -21 8 -25 15 -10 15 -10 184 0 190 23 14 60 -25 102 -108 48 -93 78
-126 115 -126 25 0 78 38 58 41 -7 1 -19 2 -25 3 -7 0 -36 46 -65 102 l-53
101 25 29 c13 15 30 41 36 56 28 69 -31 160 -113 172 -64 9 -237 6 -243 -4z
m247 -57 c24 -23 28 -34 28 -85 0 -50 -3 -60 -24 -73 -15 -10 -40 -15 -63 -13
l-38 3 -3 84 c-2 46 -1 90 2 98 9 23 68 15 98 -14z"/>
<path d="M5965 4256 c-38 -16 -90 -68 -112 -110 -18 -34 -29 -164 -19 -219 8
-45 52 -110 96 -142 29 -21 44 -25 107 -25 90 0 137 21 177 78 96 139 63 347
-64 412 -46 23 -139 26 -185 6z m152 -47 c40 -38 61 -91 69 -172 10 -113 0
-160 -45 -207 -34 -36 -43 -40 -86 -40 -42 0 -52 4 -81 35 -94 100 -96 331 -4
393 44 30 109 26 147 -9z"/>
<path d="M8225 4260 c-3 -5 -39 -10 -80 -10 -42 0 -77 -5 -80 -11 -6 -9 -13
-55 -31 -196 l-5 -43 56 0 c74 0 105 -28 105 -94 0 -37 -6 -51 -35 -81 -33
-36 -36 -37 -94 -33 -74 4 -81 -12 -14 -30 113 -30 213 53 213 177 0 39 -6 56
-26 81 -37 44 -80 63 -126 57 l-38 -5 0 36 c0 58 10 66 90 70 65 4 72 7 81 29
5 13 9 33 9 44 0 20 -15 26 -25 9z"/>
<path d="M9220 4262 c0 -4 13 -15 29 -25 36 -21 38 -40 31 -265 -4 -141 -7
-165 -22 -176 -37 -27 -20 -36 72 -36 50 0 90 4 90 8 0 5 -13 18 -30 30 -26
20 -30 29 -30 70 0 60 18 124 33 120 7 -2 35 -40 63 -84 89 -136 97 -144 160
-144 30 0 54 5 54 10 0 6 -4 10 -10 10 -5 0 -19 10 -31 23 -27 27 -169 241
-169 254 0 15 129 150 165 173 19 12 35 26 35 31 0 12 -147 12 -155 0 -3 -6 2
-14 12 -20 14 -7 16 -14 8 -36 -12 -33 -136 -174 -150 -171 -5 1 -11 40 -13
86 -2 72 0 88 18 112 11 15 20 30 20 33 0 3 -40 5 -90 5 -49 0 -90 -4 -90 -8z"/>
<path d="M3410 4251 c0 -5 13 -14 30 -21 36 -15 37 -21 45 -238 5 -165 1 -196
-32 -215 -31 -19 5 -27 118 -27 134 0 168 11 194 60 16 31 20 70 7 70 -5 0
-18 -13 -30 -29 -23 -31 -116 -66 -145 -55 -27 10 -30 34 -35 231 -4 186 -4
192 17 205 12 7 21 16 21 20 0 5 -43 8 -95 8 -52 0 -95 -4 -95 -9z"/>
<path d="M4955 4228 c-3 -13 -9 -46 -13 -73 -7 -48 -9 -50 -40 -53 -29 -3 -33
-6 -30 -30 2 -15 9 -27 18 -28 39 -3 41 -5 38 -36 -3 -29 -7 -33 -36 -36 -29
-3 -33 -6 -30 -30 2 -19 9 -27 23 -27 18 0 20 -7 20 -75 0 -68 2 -75 20 -78
19 -3 22 6 34 73 13 73 15 76 40 73 29 -3 29 -8 17 -95 -6 -52 -6 -53 18 -53
28 0 31 8 41 92 6 55 7 57 38 60 26 2 33 8 35 30 3 23 -1 27 -25 30 -24 3 -28
8 -28 33 0 25 5 31 30 35 24 4 30 10 30 30 0 17 -7 26 -25 30 -25 6 -27 20
-17 125 1 14 -5 21 -20 23 -24 4 -26 -2 -41 -93 -6 -41 -11 -51 -29 -53 -21
-3 -22 1 -25 70 -2 59 -6 73 -20 76 -11 2 -19 -5 -23 -20z m83 -215 c3 -23
-30 -49 -48 -38 -12 7 -13 48 -3 59 15 14 48 1 51 -21z"/>
<path d="M7137 4243 c-4 -7 -35 -22 -67 -34 -33 -12 -60 -25 -60 -30 0 -4 15
-9 33 -11 l32 -3 3 -175 3 -175 -33 -27 -32 -28 104 0 c106 0 115 6 58 34 -23
11 -23 13 -28 236 -3 124 -9 220 -13 213z"/>
<path d="M7352 4237 c-6 -7 -15 -33 -21 -57 -13 -57 1 -73 29 -37 20 25 27 27
101 27 62 0 79 -3 79 -14 0 -14 -50 -114 -97 -197 -20 -34 -53 -144 -53 -174
0 -7 8 -22 18 -34 15 -19 21 -20 49 -11 l31 11 -4 72 c-5 63 -1 82 26 157 54
145 71 204 68 235 l-3 30 -106 3 c-78 2 -109 -1 -117 -11z"/>
<path d="M7765 4238 c-76 -42 -105 -101 -112 -231 -5 -92 -3 -107 17 -150 32
-67 71 -97 126 -97 172 0 225 392 64 475 -34 18 -67 19 -95 3z m57 -48 c45
-35 71 -113 72 -220 1 -102 -8 -129 -49 -156 -21 -14 -27 -14 -44 -2 -40 28
-62 68 -83 150 -18 74 -19 90 -9 143 13 62 42 105 71 105 10 0 29 -9 42 -20z"/>
<path d="M8425 4240 c-27 -11 -80 -68 -72 -77 4 -3 20 3 35 14 44 32 66 36 93
14 19 -15 23 -28 23 -61 -1 -34 -8 -49 -38 -79 -20 -20 -36 -40 -36 -44 0 -4
14 -7 30 -7 43 0 70 -31 70 -81 0 -103 -81 -159 -161 -112 -15 9 -31 14 -35
10 -12 -11 16 -35 61 -53 36 -13 49 -14 82 -4 131 42 181 220 78 281 l-35 21
25 36 c14 20 25 51 25 68 0 61 -80 102 -145 74z"/>
<path d="M8763 4234 c-40 -20 -67 -49 -58 -64 4 -7 15 -3 32 10 50 39 116 14
116 -45 0 -27 -47 -105 -63 -105 -6 0 -10 -7 -10 -15 0 -10 10 -15 28 -15 43
0 67 -33 66 -89 -1 -57 -25 -97 -71 -116 -32 -13 -38 -13 -75 6 -43 22 -52 21
-43 -3 15 -38 121 -51 176 -23 16 9 43 34 59 57 25 35 30 50 30 101 0 57 -2
62 -39 97 l-38 37 21 28 c13 19 20 43 20 69 -2 74 -75 107 -151 70z"/>
<path d="M9845 4241 c-3 -6 -29 -21 -56 -32 -52 -23 -61 -46 -16 -41 l26 3 3
-91 c2 -50 2 -133 0 -185 -3 -92 -4 -93 -33 -105 -16 -7 -29 -16 -29 -21 0
-10 179 -16 194 -6 7 5 7 10 1 13 -5 2 -21 10 -35 17 l-25 13 0 218 c0 157 -3
220 -12 223 -6 2 -14 -1 -18 -6z"/>
<path d="M10148 4218 c-64 -32 -72 -45 -30 -50 l27 -3 0 -180 0 -180 -27 -13
c-16 -7 -28 -16 -28 -20 0 -5 133 -7 193 -3 17 2 -5 21 -24 21 -11 0 -23 10
-29 24 -5 13 -8 117 -7 230 1 133 -2 205 -8 204 -5 0 -36 -14 -67 -30z"/>
<path d="M6840 3955 c-68 -29 -80 -39 -80 -72 0 -23 3 -25 30 -19 17 3 53 15
81 27 46 20 50 24 47 52 -2 17 -7 31 -13 33 -5 1 -35 -9 -65 -21z"/>
<path d="M9100 3951 c-49 -21 -65 -33 -66 -49 -2 -45 10 -47 86 -18 68 27 71
29 68 59 -2 17 -7 32 -13 33 -5 2 -39 -9 -75 -25z"/>
<path d="M4532 3867 c-28 -30 -28 -49 2 -84 l24 -28 31 29 c38 36 38 45 3 79
-34 33 -33 33 -60 4z"/>
<path d="M6832 3588 c-5 -7 -14 -33 -20 -58 -5 -25 -28 -114 -49 -198 -33
-125 -37 -155 -26 -159 8 -3 17 -3 20 1 11 10 113 408 107 418 -7 12 -20 10
-32 -4z"/>
<path d="M7847 3584 c-3 -3 -25 -7 -48 -8 -24 -1 -45 -8 -47 -14 -2 -7 3 -12
12 -12 12 0 16 -11 17 -47 4 -199 11 -226 72 -264 55 -35 134 -13 174 48 13
20 19 56 24 140 4 86 9 117 22 130 15 15 18 15 41 -1 26 -16 26 -17 26 -155 0
-117 -2 -140 -16 -145 -30 -12 -2 -26 52 -26 52 0 71 11 39 24 -20 7 -22 136
-2 136 22 0 34 -14 65 -76 35 -70 52 -87 84 -82 25 3 39 38 14 38 -15 0 -66
99 -66 128 0 8 8 24 17 34 9 11 17 35 17 55 0 27 -7 42 -32 64 l-32 29 -150 0
c-83 0 -150 -4 -150 -9 0 -5 9 -15 20 -22 18 -12 20 -26 22 -114 2 -132 -20
-175 -91 -175 -42 0 -60 15 -81 68 -15 39 -8 214 10 220 5 2 10 10 10 17 0 16
-14 27 -23 19z m413 -44 c24 -13 36 -71 21 -99 -9 -15 -21 -21 -46 -21 l-35 0
0 58 c0 74 13 87 60 62z"/>
<path d="M4727 3573 c-3 -5 3 -17 14 -26 17 -15 19 -30 19 -151 0 -79 -4 -137
-10 -141 -28 -17 -1 -25 83 -25 81 0 95 3 120 23 22 17 30 34 34 68 4 39 1 50
-22 78 -21 24 -25 35 -16 44 21 21 13 82 -14 107 -22 21 -38 24 -114 28 -49 2
-91 0 -94 -5z m163 -43 c26 -26 27 -85 2 -99 -9 -5 -30 -7 -45 -4 -25 5 -27 9
-27 57 0 29 3 56 7 59 13 13 43 7 63 -13z m14 -151 c31 -24 36 -81 9 -111 -22
-24 -69 -24 -83 1 -11 22 -14 114 -3 124 13 14 51 7 77 -14z"/>
<path d="M5089 3556 c-90 -61 -103 -212 -24 -290 87 -88 230 -30 249 100 11
74 -7 134 -53 176 -35 33 -47 38 -88 38 -35 0 -59 -7 -84 -24z m135 -37 c14
-17 29 -43 32 -57 3 -15 8 -33 10 -41 11 -34 -9 -113 -36 -141 -73 -78 -160 1
-160 144 0 55 4 69 26 95 37 44 91 44 128 0z"/>
<path d="M5336 3572 c-3 -5 6 -19 19 -30 23 -20 25 -30 27 -109 3 -126 0 -154
-17 -173 -24 -26 -19 -30 42 -30 l58 0 -26 24 c-23 21 -27 34 -32 117 -3 52
-2 98 2 102 4 4 41 -33 82 -84 118 -145 130 -159 140 -153 5 3 9 72 9 154 0
93 4 151 11 155 21 13 2 29 -37 31 -53 2 -59 -4 -29 -28 23 -18 25 -25 25
-109 0 -49 -3 -89 -7 -88 -5 0 -39 41 -78 90 -102 131 -111 139 -150 139 -19
0 -36 -4 -39 -8z"/>
<path d="M5694 3569 c-2 -4 5 -13 16 -19 19 -10 20 -20 20 -151 0 -115 -3
-141 -15 -145 -37 -15 -8 -24 76 -24 75 0 98 4 125 21 79 49 111 177 62 249
-41 60 -63 69 -176 73 -57 2 -105 0 -108 -4z m192 -37 c104 -84 63 -290 -54
-280 l-37 3 -3 148 -3 147 38 0 c21 0 48 -8 59 -18z"/>
<path d="M6010 3567 c0 -4 11 -12 23 -16 21 -8 25 -19 30 -72 11 -102 8 -182
-8 -213 -8 -15 -15 -30 -15 -32 0 -2 42 -4 94 -4 90 0 96 1 115 26 20 25 28
54 15 54 -3 0 -20 -11 -36 -26 -23 -19 -40 -24 -67 -22 l-36 3 -3 63 -3 62 35
0 c26 0 36 -5 41 -20 12 -38 25 -20 25 34 0 60 -13 79 -30 46 -8 -15 -19 -20
-38 -18 -26 3 -27 6 -27 58 0 50 2 55 24 58 37 6 69 -6 76 -28 9 -29 25 -24
25 8 0 49 -7 52 -128 50 -62 -2 -112 -6 -112 -11z"/>
<path d="M6280 3571 c0 -6 9 -16 19 -23 17 -12 21 -32 27 -136 6 -104 4 -125
-10 -146 -9 -14 -16 -29 -16 -34 0 -5 39 -6 87 -4 105 6 151 29 184 94 32 62
24 156 -16 199 -17 17 -45 37 -64 45 -38 16 -211 20 -211 5z m207 -42 c30 -25
43 -68 43 -140 0 -67 -2 -73 -34 -105 -39 -39 -83 -45 -110 -16 -14 16 -15 36
-10 150 6 108 10 132 23 135 21 4 69 -9 88 -24z"/>
<path d="M7000 3572 c0 -5 9 -17 19 -26 17 -15 19 -33 20 -151 1 -83 -2 -136
-9 -140 -24 -15 -6 -25 45 -25 57 0 65 5 40 24 -30 22 -30 237 0 309 6 15 0
17 -54 17 -34 0 -61 -4 -61 -8z"/>
<path d="M7160 3565 c0 -7 8 -18 18 -24 25 -14 32 -240 8 -276 -22 -34 -21
-35 27 -35 53 0 62 7 36 29 -18 14 -21 32 -26 119 -4 60 -2 102 3 102 6 0 47
-46 92 -102 113 -142 122 -152 128 -145 3 3 8 74 11 159 4 115 9 155 20 161
23 14 4 27 -41 27 -55 0 -59 -6 -30 -35 22 -22 24 -33 24 -110 0 -47 -3 -85
-8 -85 -4 0 -34 35 -67 77 -106 136 -123 153 -161 153 -23 0 -34 -5 -34 -15z"/>
<path d="M7558 3553 c-32 -33 -37 -85 -13 -120 8 -11 40 -35 70 -52 31 -18 58
-38 62 -46 9 -24 -6 -64 -27 -75 -31 -17 -59 -3 -90 46 -29 47 -45 45 -34 -3
12 -50 42 -73 94 -73 36 0 52 5 68 23 64 69 38 145 -70 204 -47 26 -56 42 -42
77 10 27 69 20 93 -10 12 -15 21 -33 21 -40 0 -19 16 -18 24 1 6 17 -3 73 -13
79 -3 2 -31 7 -61 11 -52 6 -57 5 -82 -22z"/>
<path d="M8406 3571 c-3 -4 6 -13 19 -19 l25 -12 -3 -142 c-3 -96 -8 -143 -15
-146 -7 -2 -12 -8 -12 -13 0 -5 43 -9 95 -9 84 0 96 2 115 22 19 20 28 58 14
58 -3 0 -20 -11 -36 -26 -22 -17 -40 -24 -62 -22 l-31 3 0 65 c0 59 2 65 21
68 14 2 29 -6 42 -22 11 -15 23 -26 26 -26 8 0 8 105 0 113 -4 3 -19 -3 -34
-15 -43 -32 -60 -19 -60 47 l0 55 38 0 c24 0 46 -7 60 -20 12 -11 24 -20 27
-20 10 0 5 46 -7 58 -14 14 -214 17 -222 3z"/>
<path d="M8676 3572 c-4 -6 3 -16 14 -22 19 -10 20 -20 20 -143 0 -106 -3
-137 -16 -156 l-17 -23 99 4 c85 2 103 6 130 26 96 72 104 229 14 288 -33 22
-53 27 -138 31 -66 4 -101 2 -106 -5z m208 -51 c23 -24 46 -85 46 -126 0 -35
-30 -104 -53 -123 -26 -22 -81 -26 -100 -7 -14 13 -17 37 -16 128 1 130 5 155
27 160 26 5 74 -11 96 -32z"/>
</g>
</svg>
